{
  "accessors": [
    {
      "bufferView": 1,
      "componentType": 5126,
      "count": 37742,
      "max": [
        31.27862548828125,
        31.443161010742188,
        71.17449951171875
      ],
      "min": [
        -31.504974365234375,
        -31.34033966064453,
        -1.9232063293457031
      ],
      "type": "VEC3"
    },
    {
      "bufferView": 1,
      "byteOffset": 452904,
      "componentType": 5126,
      "count": 37742,
      "max": [
        0.9999992251396179,
        0.9999758005142212,
        0.9999994039535522
      ],
      "min": [
        -0.9998441338539124,
        -0.9999997019767761,
        -1.0
      ],
      "type": "VEC3"
    },
    {
      "bufferView": 0,
      "componentType": 5125,
      "count": 222408,
      "type": "SCALAR"
    }
  ],
  "asset": {
    "extras": {
      "author": "deadlygeek (https://sketchfab.com/deadlygeek)",
      "license": "CC-BY-4.0 (http://creativecommons.org/licenses/by/4.0/)",
      "source": "https://sketchfab.com/3d-models/french-water-glass-10fe3d13e1d24c358ee0a88fb29f8840",
      "title": "French Water Glass"
    },
    "generator": "Sketchfab-12.68.0",
    "version": "2.0"
  },
  "bufferViews": [
    {
      "buffer": 0,
      "byteLength": 889632,
      "name": "floatBufferViews",
      "target": 34963
    },
    {
      "buffer": 0,
      "byteLength": 905808,
      "byteOffset": 889632,
      "byteStride": 12,
      "name": "floatBufferViews",
      "target": 34962
    }
  ],
  "buffers": [
    {
      "byteLength": 1795440,
      "uri": "scene.bin"
    }
  ],
  "materials": [
    {
      "alphaMode": "BLEND",
      "doubleSided": true,
      "name": "Scene_-_Root",
      "pbrMetallicRoughness": {
        "baseColorFactor": [
          1.0,
          1.0,
          1.0,
          0.52
        ],
        "roughnessFactor": 0.11
      }
    }
  ],
  "meshes": [
    {
      "name": "Object_0",
      "primitives": [
        {
          "attributes": {
            "NORMAL": 1,
            "POSITION": 0
          },
          "indices": 2,
          "material": 0,
          "mode": 4
        }
      ]
    }
  ],
  "nodes": [
    {
      "children": [
        1
      ],
      "matrix": [
        1.0,
        0.0,
        0.0,
        0.0,
        0.0,
        2.220446049250313e-16,
        -1.0,
        0.0,
        0.0,
        1.0,
        2.220446049250313e-16,
        0.0,
        0.0,
        0.0,
        0.0,
        1.0
      ],
      "name": "Sketchfab_model"
    },
    {
      "children": [
        2
      ],
      "name": "e32df9f309a44a6cbeb00f554b022ec8.stl.cleaner"
    },
    {
      "mesh": 0,
      "name": "Object_2"
    }
  ],
  "scene": 0,
  "scenes": [
    {
      "name": "Sketchfab_Scene",
      "nodes": [
        0
      ]
    }
  ]
}
